<svg width="91" height="77" viewBox="0 0 91 77" fill="none" xmlns="http://www.w3.org/2000/svg">
<path d="M8.52444 63.3744C5.63949 63.3744 3.42451 65.4527 3.42451 68.2145C3.42451 70.9628 5.63949 73.082 8.52444 73.082C11.4094 73.082 13.6244 70.9628 13.6244 68.2145C13.6244 65.4663 11.4094 63.3744 8.52444 63.3744ZM8.55178 65.0151C10.3019 65.0151 11.7512 66.4097 11.7512 68.2145C11.7512 70.0193 10.3019 71.4413 8.55178 71.4413C6.788 71.4413 5.29767 70.0193 5.29767 68.2145C5.29767 66.4097 6.77433 65.0151 8.55178 65.0151ZM21.6376 63.4291H17.7135V73H19.5457V70.1834H21.6376C24.044 70.1834 25.425 68.9119 25.425 66.7242C25.425 64.6186 24.044 63.4291 21.6376 63.4291ZM21.5419 68.57H19.5457V65.0288H21.5419C22.9092 65.0288 23.6885 65.6031 23.6885 66.7789C23.6885 67.9821 22.9092 68.57 21.5419 68.57ZM29.4213 63.4291V73H36.5995V71.4003H31.2535V68.9939H35.9022V67.3942H31.2535V65.0288H36.4354V63.4291H29.4213ZM40.9421 63.4291V73H42.7333V66.4644L47.6555 73H49.3919V63.4291H47.6144V69.9783L42.6786 63.4291H40.9421ZM54.2255 63.4291V73H61.4037V71.4003H56.0576V68.9939H60.7064V67.3942H56.0576V65.0288H61.2396V63.4291H54.2255ZM73.8269 73L71.7213 69.8279C72.9518 69.3084 73.6218 68.2282 73.6218 66.7242C73.6218 64.6186 72.2135 63.4291 69.7388 63.4291H65.7463V73H67.5785V70.1834H69.7388C69.8618 70.1834 69.9712 70.1834 70.0806 70.1697L71.735 73H73.8269ZM67.5785 65.0288H69.7388C71.106 65.0288 71.8717 65.6031 71.8717 66.7789C71.8717 67.9821 71.106 68.57 69.7388 68.57H67.5785V65.0288ZM84.1243 65.9449L84.8627 64.3588C83.9466 63.7572 82.675 63.3471 81.4035 63.3471C79.2569 63.3471 77.8212 64.4135 77.8212 66.0816C77.8212 69.4861 82.9622 68.3513 82.9622 70.3475C82.9622 71.0175 82.3469 71.4003 81.3214 71.4003C80.296 71.4003 78.9971 70.8671 78.0126 69.992L77.247 71.537C78.2724 72.4531 79.7627 73.0684 81.2941 73.0684C83.3997 73.0684 84.9584 72.0292 84.9584 70.2381C84.9721 66.8063 79.8311 67.8591 79.8311 65.9175C79.8311 65.3296 80.3917 65.0151 81.2531 65.0151C81.9914 65.0151 83.0989 65.3296 84.1243 65.9449Z" fill="#52BAF9"/>
<path d="M57.4485 38.6825L46.0959 27.3299C46.4915 26.6321 46.394 25.7284 45.7999 25.1344L45.7565 25.0909L51.6343 19.2131C51.9102 18.9372 52.0271 18.5443 51.9469 18.162C51.8671 17.7818 51.6039 17.4709 51.2429 17.3302C50.9079 17.1996 50.5229 17.1334 50.0984 17.1334C48.0896 17.1334 45.0473 18.6502 41.8807 21.2152L41.6335 20.968C41.2884 20.6227 40.8289 20.4326 40.3399 20.4326C40.0179 20.4326 39.7097 20.5165 39.4375 20.6714L39.3729 20.6069C38.8958 20.1298 38.2615 19.8671 37.5869 19.8671C36.9121 19.8671 36.2778 20.1298 35.8008 20.6069C35.3237 21.084 35.061 21.7182 35.061 22.393C35.061 23.0677 35.3237 23.7019 35.8008 24.179L35.8658 24.2441C35.4703 24.9419 35.5677 25.8456 36.1619 26.4397L36.4093 26.6872C33.8809 29.8156 31.638 33.7758 32.5241 36.049C32.6966 36.4916 33.1165 36.7776 33.5936 36.7776C33.9006 36.7776 34.1894 36.6578 34.4069 36.4404L40.2847 30.5626L40.3281 30.606C40.6734 30.9512 41.1327 31.1413 41.6217 31.1413C41.9437 31.1413 42.252 31.0574 42.5241 30.9025L53.8761 42.2545C54.3533 42.7316 54.9876 42.9943 55.6622 42.9943C56.3369 42.9943 56.9712 42.7316 57.4483 42.2545C58.4334 41.2698 58.4334 39.6674 57.4485 38.6825ZM41.6219 29.7486C41.5049 29.7486 41.3952 29.7034 41.3131 29.6213L40.2848 28.5929L33.7316 35.1461C33.6619 34.4591 33.9123 33.4433 34.4502 32.2691C35.1732 30.6908 36.3599 28.9001 37.8821 27.0904L38.2934 26.6014L37.1468 25.4548C36.9765 25.2845 36.9765 25.0074 37.1468 24.8371L40.0313 21.9527C40.1135 21.8705 40.2231 21.8252 40.34 21.8252C40.457 21.8252 40.5667 21.8705 40.6488 21.9527L41.7954 23.0993L42.2843 22.688C45.3363 20.1209 48.3306 18.5261 50.0985 18.5261C50.1831 18.5261 50.2637 18.5299 50.3399 18.5377L43.7868 25.0908L44.8151 26.1191C44.9853 26.2894 44.9853 26.5664 44.8151 26.7367L41.9306 29.6212C41.8484 29.7034 41.7387 29.7486 41.6219 29.7486ZM36.5004 22.0704C36.5211 22.0003 36.5487 21.9318 36.5833 21.866C36.6351 21.7674 36.7026 21.6748 36.7855 21.5917C36.9237 21.4535 37.0889 21.3583 37.2641 21.3065C37.3692 21.2754 37.4779 21.2598 37.5866 21.2598C37.6953 21.2598 37.8041 21.2754 37.9092 21.3065C38.0493 21.348 38.183 21.4171 38.3017 21.514C38.3313 21.5382 38.3601 21.5641 38.3877 21.5917L38.4049 21.6089L36.8024 23.2114L36.7853 23.1942C36.6193 23.0282 36.5156 22.8236 36.4741 22.6094C36.4603 22.538 36.4533 22.4656 36.4533 22.3931C36.4537 22.2842 36.4693 22.1755 36.5004 22.0704ZM56.7903 40.5773C56.78 40.6856 56.7541 40.7928 56.7126 40.895C56.6573 41.0315 56.5743 41.1593 56.4637 41.2699C56.3531 41.3806 56.2253 41.4635 56.0888 41.5188C56.0207 41.5465 55.9502 41.5672 55.8788 41.5811C55.8074 41.5949 55.7349 41.6018 55.6623 41.6018C55.3723 41.6018 55.0824 41.4912 54.8611 41.2699L43.5564 29.9652L45.1589 28.3627L47.4258 30.6296L56.4636 39.6674C56.5742 39.7781 56.6571 39.9059 56.7125 40.0423C56.754 40.1447 56.7799 40.2517 56.7902 40.3601C56.7972 40.4322 56.7972 40.505 56.7903 40.5773Z" fill="#52BAF9"/>
</svg>
